<svg xmlns="http://www.w3.org/2000/svg" xmlns:xlink="http://www.w3.org/1999/xlink" width="659" height="688" viewBox="0 0 659 688"><clipPath id="cl_3"><rect width="659" height="688"/></clipPath><g clip-path="url(#cl_3)"><path fill="#0A1F44" transform="translate(-187 -174)" d="M0 0L1024 0L1024 1024L0 1024L0 0Z"/><path fill="#00C9C8" transform="translate(-187 -174)" d="M589.823 550.747L827.079 550.662C829.963 560.656 835.026 575.941 836.578 585.751C837.4 590.944 836.973 607.086 836.97 613.209L836.919 666.584L836.955 843.924L777.056 843.663L527.366 843.567C527.052 832.406 527.316 819.829 527.317 808.543L527.363 739.522L527.046 550.909L589.823 550.747Z"/><path fill="#0A1F44" transform="translate(-187 -174)" d="M558.078 581.595C593.067 581.809 628.057 581.8 663.046 581.568L663.005 685.825C661.037 686.113 654.646 686.005 652.449 686.003L631.342 685.948L558.129 685.95C557.673 651.481 558.074 616.129 558.078 581.595Z"/><path fill="#00C9C8" transform="translate(-187 -174)" d="M574.687 598.044L647.034 598.175L647.056 670.011L574.836 670.091C574.106 647.484 574.48 620.849 574.687 598.044Z"/><path fill="#0A1F44" transform="translate(-187 -174)" d="M592.621 615.427L628.504 615.261L628.561 652.912C616.57 652.925 604.58 652.875 592.59 652.762L592.621 615.427Z"/><path fill="#0A1F44" transform="translate(-187 -174)" d="M558.045 714.199C571.543 714.595 586.185 714.315 599.763 714.288L663.008 714.195L663.077 816.417C662.054 817.376 653.978 817.026 652.249 817.024L631.794 817.026L558.064 817.141L558.045 714.199Z"/><path fill="#00C9C8" transform="translate(-187 -174)" d="M574.669 730.046L646.703 730.027L646.882 800.967L574.626 801.021C574.313 777.656 574.647 753.468 574.669 730.046Z"/><path fill="#0A1F44" transform="translate(-187 -174)" d="M592.505 746.951L628.516 746.956L628.575 783.335C616.765 783.07 604.415 783.236 592.589 783.296L592.505 746.951Z"/><path fill="#0A1F44" transform="translate(-187 -174)" d="M697.413 581.673C731.192 582.053 765.737 581.604 799.586 581.614L799.395 685.762L697.481 685.955L697.413 581.673Z"/><path fill="#00C9C8" transform="translate(-187 -174)" d="M713.688 597.989C736.937 597.667 760.716 597.879 784.028 597.769C783.995 621.871 784.09 645.973 784.313 670.074L713.473 670.106C713.358 646.067 713.43 622.027 713.688 597.989Z"/><path fill="#0A1F44" transform="translate(-187 -174)" d="M731.892 615.503L766.147 615.458C766.327 627.694 766.168 640.321 766.161 652.586L731.811 652.584L731.892 615.503Z"/><path fill="#0A1F44" transform="translate(-187 -174)" d="M721.078 714.245L799.528 713.999L799.435 817.039L776.25 817.035L697.268 817.031C697.026 782.813 697.024 748.594 697.261 714.376L721.078 714.245Z"/><path fill="#00C9C8" transform="translate(-187 -174)" d="M713.28 730.009L784.018 729.886L784.174 800.737C760.809 800.501 736.817 800.788 713.426 800.949L713.28 730.009Z"/><path fill="#0A1F44" transform="translate(-187 -174)" d="M731.891 746.985L766.049 746.938L766.171 769.884C766.184 773.085 766.372 780.451 765.844 783.351C754.467 783.26 743.089 783.238 731.711 783.285L731.891 746.985Z"/><defs><linearGradient id="gradient_0" gradientUnits="userSpaceOnUse" x1="205.34566" y1="548.83234" x2="485.14395" y2="851.60809"><stop offset="0" stop-color="#40EFBF"/><stop offset="1" stop-color="#0DD4CF"/></linearGradient></defs><path fill="url(#gradient_0)" transform="translate(-187 -174)" d="M202.053 550.445C234.386 549.785 268.404 550.625 300.92 550.658L496.349 550.537L496.694 843.728L483.625 843.719L189.166 844.036L189.002 662.056L188.952 609.528C188.928 580.979 187.783 576.977 202.053 550.445Z"/><path fill="#0A1F44" transform="translate(-187 -174)" d="M360.528 581.636L465.976 581.538L465.966 685.991L360.431 686.018L360.528 581.636Z"/><path fill="#41EBC0" transform="translate(-187 -174)" d="M376.798 597.962L449.26 597.982C449.745 621.627 449.469 646.388 449.47 670.098L376.799 670.186C376.119 648.097 376.505 620.094 376.798 597.962Z"/><path fill="#0A1F44" transform="translate(-187 -174)" d="M395.37 616.503L431.186 616.476C431.229 624.096 431.805 644.968 430.983 651.622L395.197 651.788C395.346 640.027 395.404 628.265 395.37 616.503Z"/><path fill="#0A1F44" transform="translate(-187 -174)" d="M394.761 714.246L465.848 714.23C465.576 748.288 466.021 782.943 466.121 817.037L432.75 817.02L360.531 817.033L360.601 714.339L394.761 714.246Z"/><path fill="#00C9C8" transform="translate(-187 -174)" d="M376.762 729.877L449.338 729.973L449.49 800.981L376.737 800.986C375.987 780.088 376.467 751.144 376.762 729.877Z"/><path fill="#0A1F44" transform="translate(-187 -174)" d="M395.198 747.219L431.216 747.173C431.535 759.075 431.026 771.101 431.464 783.069L395.133 783.055L395.198 747.219Z"/><path fill="#0A1F44" transform="translate(-187 -174)" d="M224.119 581.614L326.061 581.639C326.326 616.434 326.365 651.231 326.175 686.026L223.863 686.198L224.119 581.614Z"/><path fill="#41EBC0" transform="translate(-187 -174)" d="M239.153 598.001L311.326 598.089L311.298 670.008L239.381 669.998C238.646 647.235 239.301 621.134 239.153 598.001Z"/><path fill="#0A1F44" transform="translate(-187 -174)" d="M257.586 615.081L292.98 615.012L292.966 651.873C281.18 651.788 269.394 651.765 257.608 651.804C257.687 639.563 257.679 627.322 257.586 615.081Z"/><path fill="#0A1F44" transform="translate(-187 -174)" d="M223.853 714.104C257.057 714.059 293.642 715.022 326.474 713.979L326.451 817L223.529 817.098L223.853 714.104Z"/><path fill="#41EBC0" transform="translate(-187 -174)" d="M239.141 729.863C261.759 729.212 288.128 729.908 311.003 729.94L311.01 800.884L238.986 801L239.141 729.863Z"/><path fill="#0A1F44" transform="translate(-187 -174)" d="M257.065 746.978L292.945 746.985L292.958 783.403C281.335 783.163 268.911 783.392 257.229 783.414L257.065 746.978Z"/><defs><linearGradient id="gradient_1" gradientUnits="userSpaceOnUse" x1="902.19684" y1="390.35904" x2="553.02216" y2="142.97615"><stop offset="0" stop-color="#1ECFC5"/><stop offset="1" stop-color="#44EBBD"/></linearGradient></defs><path fill="url(#gradient_1)" transform="translate(-187 -174)" d="M526.846 177.954L836.505 177.87C835.835 232.583 836.455 288.988 836.517 343.797C836.333 392.105 836.428 440.415 836.8 488.722C835.156 486.334 833.761 483.582 832.343 481.037C819.815 458.547 805.675 436.502 788.836 416.918C736.47 355.634 665.114 313.62 586.12 297.56C565.998 293.537 547.294 292.006 526.971 290.494C526.729 252.981 526.688 215.467 526.846 177.954Z"/><path fill="#41EBC0" transform="translate(-187 -174)" d="M188.273 177.98C225.249 177.562 263.045 177.947 300.081 177.937L496.788 177.947L496.826 291.018C445.683 291.182 386.674 308.134 341.527 331.66C273.75 367.393 225.285 421.749 188.527 488.087C188.155 455.964 188.549 422.979 188.538 390.798L188.273 177.98Z"/><path fill="#00C9C8" transform="translate(-187 -174)" d="M526.901 322.439C550.965 322.538 579.432 328.091 602.51 334.349L602.954 536.05L527.097 536.289L526.901 322.439Z"/><path fill="#41EBC0" transform="translate(-187 -174)" d="M489.914 322.293C492.14 322.096 494.646 322.011 496.902 321.882L496.698 536.191L430.25 536.157L422.472 536.166L422.448 333.4C445.487 327.322 466.209 323.611 489.914 322.293Z"/><path fill="#00C9C8" transform="translate(-187 -174)" d="M622.298 339.994C650.136 351.595 672.47 360.895 697.506 378.435C696.989 430.89 696.924 483.348 697.311 535.804C695.528 536.278 679.003 536.12 676.063 536.122L622.98 536.182L622.298 339.994Z"/><path fill="#41EBC0" transform="translate(-187 -174)" d="M399.255 341.433L399.779 341.489C400.637 342.671 400.466 343.465 400.472 344.98C400.71 408.699 399.035 472.788 400.398 536.473L327.875 536.498C327.192 536.5 326.903 536.371 326.224 536.213C325.732 532.938 325.968 523.15 325.976 519.459L326.069 487.598L325.981 379.084C344.847 364.051 376.892 350.024 399.255 341.433Z"/><path fill="#00C9C8" transform="translate(-187 -174)" d="M720.238 395.193C729.217 400.882 736.424 408.794 744.059 415.973C764.709 435.394 779.454 456.094 794.967 479.693C795.235 498.317 795.072 517.696 794.973 536.329C770.31 535.884 744.781 536.215 720.053 536.203L720.238 395.193Z"/><path fill="#41EBC0" transform="translate(-187 -174)" d="M303.465 394.949L303.794 395.259C304.875 399.189 304.055 425.51 304.049 431.387L304.081 536.118L230.67 536.321C229.786 535.395 230.275 483.864 230.288 477.926C245.595 451.665 279.479 413.411 303.465 394.949Z"/></g></svg>